<?xml version="1.0" standalone="yes"?>
<svg xmlns="http://www.w3.org/2000/svg" width="280" height="280">
<path style="fill:#000000; stroke:none;" d="M0 0L0 280L280 280L280 0L0 0z"/>
<path style="fill:#3587e3; stroke:none;" d="M122 44C126.068 39.5596 130.298 40 136 40C145.749 40 156.479 38.7333 166 41C163.418 38.0452 158.707 39 155 39L132 39C127.123 39.0022 122.936 38.3902 122 44z"/>
<path style="fill:#247ee0; stroke:none;" d="M35 255L62 255C65.4328 255 70.3159 255.846 73.4429 254.142C76.0242 252.735 77.0612 249.342 78.5579 246.996C81.394 242.552 84.6521 237.93 88.1844 234.015C100.676 220.168 121.237 210.091 140 210.001C161.244 209.898 180.928 217.654 195.961 233.015C200.085 237.229 203.31 242.022 206.424 247C207.966 249.466 209.595 253.116 212.379 254.397C215.595 255.877 220.542 255 224 255L251 255C244.574 238.272 237.685 222.768 225.711 209C207.064 187.56 176.964 175.004 149 173.09C134.314 172.084 121.283 176.755 107 178C112.862 156.141 123.763 135.13 131.55 113.91C134.421 106.086 137.477 98.3945 140.679 90.7145C142.049 87.4292 142.501 84.6336 145 82C145.632 86.6658 147.581 90.5431 148.9 95C153.11 109.227 158.255 123.432 161 138C170.745 138 181.626 138.773 190.83 142.296C197.603 144.889 203.37 149.312 210 152C207.744 142.246 203.07 133.233 199.312 124C192.428 107.084 185.456 90.0694 178.915 73C175.949 65.2592 173.052 57.569 169.625 50C168.399 47.2932 167.744 43.6347 165.428 41.6034C162.959 39.4375 159.033 40.0014 156 40L134 40C131.04 40.0002 127.123 39.3874 124.471 40.9884C119.115 44.2212 116.489 55.4086 114.655 60.9992C110.251 74.4255 103.65 87.796 98.3449 100.91C83.8806 136.669 68.2288 172.083 53.9113 208C47.6982 223.586 39.9676 238.989 35 255z"/>
<path style="fill:#4a92e5; stroke:none;" d="M166.333 41.6667C166.278 41.7222 166.222 42.7778 166.667 42.3333C166.722 42.2777 166.778 41.2222 166.333 41.6667z"/>
<path style="fill:#5b9fe8; stroke:none;" d="M168 45C168.176 46.8781 168.438 48.1995 169 50C169.473 47.8571 169.133 46.8987 168 45z"/>
<path style="fill:#6ca6e9; stroke:none;" d="M119 48L120 49L119 48z"/>
<path style="fill:#5e9ee8; stroke:none;" d="M118 50L118 53C118.696 51.4463 118.696 51.5537 118 50z"/>
<path style="fill:#5498e6; stroke:none;" d="M170.333 50.6667C170.278 50.7222 170.222 51.7778 170.667 51.3333C170.722 51.2777 170.778 50.2223 170.333 50.6667z"/>
<path style="fill:#609ee8; stroke:none;" d="M171.333 53.6667C171.278 53.7222 171.222 54.7778 171.667 54.3333C171.722 54.2777 171.778 53.2223 171.333 53.6667z"/>
<path style="fill:#80b2ed; stroke:none;" d="M115.333 57.6667C115.278 57.7222 115.222 58.7778 115.667 58.3333C115.722 58.2777 115.778 57.2223 115.333 57.6667z"/>
<path style="fill:#61a0e8; stroke:none;" d="M173 58L173 61C173.696 59.4463 173.696 59.5537 173 58z"/>
<path style="fill:#4c94e5; stroke:none;" d="M114.333 60.6667C114.278 60.7222 114.222 61.7778 114.667 61.3333C114.722 61.2777 114.778 60.2223 114.333 60.6667z"/>
<path style="fill:#4e95e6; stroke:none;" d="M174.333 61.6667C174.278 61.7222 174.222 62.7778 174.667 62.3333C174.722 62.2777 174.778 61.2223 174.333 61.6667z"/>
<path style="fill:#5b9ce8; stroke:none;" d="M113 62L113 65C113.696 63.4463 113.696 63.5537 113 62z"/>
<path style="fill:#4e96e6; stroke:none;" d="M112 65L112 68C112.696 66.4463 112.696 66.5537 112 65z"/>
<path style="fill:#82b3ed; stroke:none;" d="M111 67L112 68L111 67z"/>
<path style="fill:#6aa6ea; stroke:none;" d="M178 70L178 73C178.696 71.4463 178.696 71.5537 178 70z"/>
<path style="fill:#6da6ea; stroke:none;" d="M109.333 72.6667C109.278 72.7222 109.222 73.7778 109.667 73.3333C109.722 73.2777 109.778 72.2223 109.333 72.6667z"/>
<path style="fill:#5c9ee8; stroke:none;" d="M179.333 73.6667C179.278 73.7222 179.222 74.7778 179.667 74.3333C179.722 74.2778 179.778 73.2222 179.333 73.6667z"/>
<path style="fill:#5498e6; stroke:none;" d="M180.333 75.6667C180.278 75.7222 180.222 76.7778 180.667 76.3333C180.722 76.2778 180.778 75.2222 180.333 75.6667z"/>
<path style="fill:#4591e5; stroke:none;" d="M107 76L107 80C107.71 78.2405 107.71 77.7595 107 76z"/>
<path style="fill:#619ee9; stroke:none;" d="M181.333 78.6667C181.278 78.7222 181.222 79.7778 181.667 79.3333C181.722 79.2777 181.778 78.2223 181.333 78.6667z"/>
<path style="fill:#66a3e9; stroke:none;" d="M143 82L143 84C144.635 83.455 144.455 83.6351 145 82L143 82z"/>
<path style="fill:#60a0e8; stroke:none;" d="M183 83L183 86C183.696 84.4463 183.696 84.5537 183 83z"/>
<path style="fill:#5a9ce7; stroke:none;" d="M104.333 84.6667C104.278 84.7222 104.222 85.7778 104.667 85.3333C104.722 85.2777 104.778 84.2223 104.333 84.6667z"/>
<path style="fill:#69a4e9; stroke:none;" d="M142.333 84.6667C142.278 84.7222 142.222 85.7778 142.667 85.3333C142.722 85.2777 142.778 84.2223 142.333 84.6667z"/>
<path style="fill:#4d95e6; stroke:none;" d="M184.333 86.6667C184.278 86.7222 184.222 87.7778 184.667 87.3333C184.722 87.2777 184.778 86.2223 184.333 86.6667z"/>
<path style="fill:#579be8; stroke:none;" d="M103.333 87.6667C103.278 87.7222 103.222 88.7778 103.667 88.3333C103.722 88.2777 103.778 87.2223 103.333 87.6667z"/>
<path style="fill:#8bb8ef; stroke:none;" d="M141.333 88.6667C141.278 88.7222 141.222 89.7778 141.667 89.3333C141.722 89.2777 141.778 88.2223 141.333 88.6667z"/>
<path style="fill:#92bcee; stroke:none;" d="M147.333 91.6667C147.278 91.7222 147.222 92.7778 147.667 92.3333C147.722 92.2778 147.778 91.2222 147.333 91.6667z"/>
<path style="fill:#6ca9ea; stroke:none;" d="M139.333 92.6667C139.278 92.7222 139.222 93.7778 139.667 93.3333C139.722 93.2777 139.778 92.2223 139.333 92.6667z"/>
<path style="fill:#4892e4; stroke:none;" d="M148.333 92.6667C148.278 92.7222 148.222 93.7778 148.667 93.3333C148.722 93.2778 148.778 92.2222 148.333 92.6667z"/>
<path style="fill:#8bb8ee; stroke:none;" d="M100.333 93.6667C100.278 93.7222 100.222 94.7778 100.667 94.3333C100.722 94.2777 100.778 93.2223 100.333 93.6667z"/>
<path style="fill:#5d9ee8; stroke:none;" d="M138 94L138 97C138.696 95.4463 138.696 95.5537 138 94z"/>
<path style="fill:#8abaef; stroke:none;" d="M148.333 94.6667C148.278 94.7222 148.222 95.7778 148.667 95.3333C148.722 95.2778 148.778 94.2222 148.333 94.6667z"/>
<path style="fill:#69a6eb; stroke:none;" d="M188.333 95.6667C188.278 95.7222 188.222 96.7778 188.667 96.3333C188.722 96.2777 188.778 95.2222 188.333 95.6667z"/>
<path style="fill:#65a3e9; stroke:none;" d="M149 97L150 98L149 97z"/>
<path style="fill:#5c9fe8; stroke:none;" d="M98 98L97 104C98.495 101.815 98.8888 100.508 98 98z"/>
<path style="fill:#78adec; stroke:none;" d="M137 98L138 99L137 98z"/>
<path style="fill:#5c9ee9; stroke:none;" d="M189.333 98.6667C189.278 98.7222 189.222 99.7778 189.667 99.3333C189.722 99.2778 189.778 98.2223 189.333 98.6667z"/>
<path style="fill:#5398e6; stroke:none;" d="M190.333 100.667C190.278 100.722 190.222 101.778 190.667 101.333C190.722 101.278 190.778 100.222 190.333 100.667z"/>
<path style="fill:#74aaea; stroke:none;" d="M136 101L137 102L136 101z"/>
<path style="fill:#73aaea; stroke:none;" d="M150 101L151 102L150 101z"/>
<path style="fill:#629ee8; stroke:none;" d="M191.333 103.667C191.278 103.722 191.222 104.778 191.667 104.333C191.722 104.278 191.778 103.222 191.333 103.667z"/>
<path style="fill:#4691e5; stroke:none;" d="M134 104L134 108C134.71 106.24 134.71 105.76 134 104z"/>
<path style="fill:#72a9ea; stroke:none;" d="M151.333 104.667C151.278 104.722 151.222 105.778 151.667 105.333C151.722 105.278 151.778 104.222 151.333 104.667z"/>
<path style="fill:#6aa7ea; stroke:none;" d="M152 107L152 110C152.696 108.446 152.696 108.554 152 107z"/>
<path style="fill:#8cbbef; stroke:none;" d="M133.333 108.667C133.278 108.722 133.222 109.778 133.667 109.333C133.722 109.278 133.778 108.222 133.333 108.667z"/>
<path style="fill:#60a0e8; stroke:none;" d="M193 108L193 111C193.696 109.446 193.696 109.554 193 108z"/>
<path style="fill:#75abeb; stroke:none;" d="M132 110L132 113C132.696 111.446 132.696 111.554 132 110z"/>
<path style="fill:#78afec; stroke:none;" d="M153 110L153 113C153.696 111.446 153.696 111.554 153 110z"/>
<path style="fill:#4c95e5; stroke:none;" d="M93.3333 111.667C93.2778 111.722 93.2222 112.778 93.6667 112.333C93.7223 112.278 93.7778 111.222 93.3333 111.667z"/>
<path style="fill:#4d96e6; stroke:none;" d="M194.333 111.667C194.278 111.722 194.222 112.778 194.667 112.333C194.722 112.278 194.778 111.222 194.333 111.667z"/>
<path style="fill:#71a9eb; stroke:none;" d="M154 113L154 116C154.696 114.446 154.696 114.554 154 113z"/>
<path style="fill:#81b1ec; stroke:none;" d="M131 114L132 115L131 114z"/>
<path style="fill:#4a93e4; stroke:none;" d="M129 117L129 120C130.015 118.861 130.309 118.388 131 117L129 117z"/>
<path style="fill:#66a1e9; stroke:none;" d="M155.333 117.667C155.278 117.722 155.222 118.778 155.667 118.333C155.722 118.278 155.778 117.222 155.333 117.667z"/>
<path style="fill:#81b2ec; stroke:none;" d="M90 118L91 119L90 118z"/>
<path style="fill:#74abeb; stroke:none;" d="M89 120L89 123C89.6961 121.446 89.6961 121.554 89 120z"/>
<path style="fill:#5e9ee8; stroke:none;" d="M128 120L128 123C128.696 121.446 128.696 121.554 128 120z"/>
<path style="fill:#6ba6ea; stroke:none;" d="M198 120L198 123C198.696 121.446 198.696 121.554 198 120z"/>
<path style="fill:#8fbaee; stroke:none;" d="M156 122L157 123L156 122z"/>
<path style="fill:#559de7; stroke:none;" d="M157 122L157 126C157.71 124.24 157.71 123.759 157 122z"/>
<path style="fill:#63a2e9; stroke:none;" d="M88.3333 123.667C88.2778 123.722 88.2222 124.778 88.6667 124.333C88.7222 124.278 88.7778 123.222 88.3333 123.667z"/>
<path style="fill:#5c9fe8; stroke:none;" d="M199.333 123.667C199.278 123.722 199.222 124.778 199.667 124.333C199.722 124.278 199.778 123.222 199.333 123.667z"/>
<path style="fill:#6da7ea; stroke:none;" d="M127 124L128 125L127 124z"/>
<path style="fill:#5498e6; stroke:none;" d="M200.333 125.667C200.278 125.722 200.222 126.778 200.667 126.333C200.722 126.278 200.778 125.222 200.333 125.667z"/>
<path style="fill:#77aeec; stroke:none;" d="M158 126L158 129C158.696 127.446 158.696 127.554 158 126z"/>
<path style="fill:#8bb7ee; stroke:none;" d="M126 127L127 128L126 127z"/>
<path style="fill:#609ee9; stroke:none;" d="M201.333 128.667C201.278 128.722 201.222 129.778 201.667 129.333C201.722 129.278 201.778 128.222 201.333 128.667z"/>
<path style="fill:#4f95e5; stroke:none;" d="M159 129L159 132C159.696 130.446 159.696 130.554 159 129z"/>
<path style="fill:#4e96e6; stroke:none;" d="M124 130L124 133C125.015 131.861 125.309 131.388 126 130L124 130z"/>
<path style="fill:#6ca6ea; stroke:none;" d="M84 133L85 134L84 133z"/>
<path style="fill:#5c9ce8; stroke:none;" d="M123 133L123 136C123.696 134.446 123.696 134.554 123 133z"/>
<path style="fill:#619fe8; stroke:none;" d="M203 133L203 136C203.696 134.446 203.696 134.554 203 133z"/>
<path style="fill:#5d9ee8; stroke:none;" d="M83 135L83 138C83.6961 136.446 83.6961 136.554 83 135z"/>
<path style="fill:#74abeb; stroke:none;" d="M122 136L122 139C122.696 137.446 122.696 137.554 122 136z"/>
<path style="fill:#4d95e5; stroke:none;" d="M204.333 136.667C204.278 136.722 204.222 137.778 204.667 137.333C204.722 137.278 204.778 136.222 204.333 136.667z"/>
<path style="fill:#72a9ea; stroke:none;" d="M162 138C163.506 138.683 164.315 138.826 166 139C164.494 138.317 163.685 138.174 162 138z"/>
<path style="fill:#3a8be3; stroke:none;" d="M166 138C168.613 139.098 171.164 138.993 174 139C171.387 137.902 168.835 138.007 166 138z"/>
<path style="fill:#8bb8ee; stroke:none;" d="M174 139C175.506 139.683 176.315 139.826 178 140C176.494 139.317 175.685 139.174 174 139z"/>
<path style="fill:#6da6ea; stroke:none;" d="M121 140L122 141L121 140z"/>
<path style="fill:#75abeb; stroke:none;" d="M181 140C182.506 140.683 183.315 140.826 185 141C183.494 140.317 182.685 140.174 181 140z"/>
<path style="fill:#7ab1ec; stroke:none;" d="M185.667 141.333C185.222 141.778 186.278 141.722 186.333 141.667C186.778 141.222 185.722 141.278 185.667 141.333z"/>
<path style="fill:#5196e6; stroke:none;" d="M187.667 141.333C187.222 141.778 188.278 141.722 188.333 141.667C188.778 141.222 187.722 141.278 187.667 141.333z"/>
<path style="fill:#81b2ec; stroke:none;" d="M80.3333 142.667C80.2778 142.722 80.2222 143.778 80.6667 143.333C80.7223 143.278 80.7778 142.222 80.3333 142.667z"/>
<path style="fill:#4891e5; stroke:none;" d="M189 142C190.506 142.683 191.315 142.826 193 143C191.494 142.317 190.685 142.174 189 142z"/>
<path style="fill:#4791e5; stroke:none;" d="M119 143L119 146C119.696 144.446 119.696 144.554 119 143z"/>
<path style="fill:#81b3ed; stroke:none;" d="M195 144L196 145L195 144z"/>
<path style="fill:#8ab9ee; stroke:none;" d="M79 145L80 146L79 145z"/>
<path style="fill:#4d94e6; stroke:none;" d="M197.667 145.333C197.222 145.778 198.278 145.722 198.333 145.667C198.778 145.222 197.722 145.278 197.667 145.333z"/>
<path style="fill:#6aa6ea; stroke:none;" d="M208.333 145.667C208.278 145.722 208.222 146.778 208.667 146.333C208.722 146.278 208.778 145.222 208.333 145.667z"/>
<path style="fill:#8ebbef; stroke:none;" d="M119 146L120 147L119 146z"/>
<path style="fill:#589ae7; stroke:none;" d="M199.667 146.333C199.222 146.778 200.278 146.722 200.333 146.667C200.778 146.222 199.722 146.278 199.667 146.333z"/>
<path style="fill:#5b9ce8; stroke:none;" d="M78 147L78 150C78.6961 148.446 78.6961 148.554 78 147z"/>
<path style="fill:#7db2ed; stroke:none;" d="M118.333 147.667C118.278 147.722 118.222 148.778 118.667 148.333C118.722 148.278 118.778 147.222 118.333 147.667z"/>
<path style="fill:#4f98e6; stroke:none;" d="M201.667 147.333C201.222 147.778 202.278 147.722 202.333 147.667C202.778 147.222 201.722 147.278 201.667 147.333z"/>
<path style="fill:#5d9ee8; stroke:none;" d="M209.333 148.667C209.278 148.722 209.222 149.778 209.667 149.333C209.722 149.278 209.778 148.222 209.333 148.667z"/>
<path style="fill:#69a5e9; stroke:none;" d="M117.333 149.667C117.278 149.722 117.222 150.778 117.667 150.333C117.722 150.278 117.778 149.222 117.333 149.667z"/>
<path style="fill:#81b2ed; stroke:none;" d="M205 149L206 150L205 149z"/>
<path style="fill:#80b1ed; stroke:none;" d="M206 150L207 151L206 150z"/>
<path style="fill:#4490e4; stroke:none;" d="M210 150C209.782 151.687 209.776 152.316 210 154C210.71 152.241 210.71 151.759 210 150z"/>
<path style="fill:#91bdef; stroke:none;" d="M207 151L208 152L207 151z"/>
<path style="fill:#82b3ee; stroke:none;" d="M76 152L77 153L76 152z"/>
<path style="fill:#8cb7ee; stroke:none;" d="M116.333 153.667C116.278 153.722 116.222 154.778 116.667 154.333C116.722 154.278 116.778 153.222 116.333 153.667z"/>
<path style="fill:#6fa9eb; stroke:none;" d="M115 156L116 157L115 156z"/>
<path style="fill:#6ca6eb; stroke:none;" d="M74.3333 157.667C74.2778 157.722 74.2222 158.778 74.6667 158.333C74.7222 158.278 74.7778 157.222 74.3333 157.667z"/>
<path style="fill:#6ea9eb; stroke:none;" d="M114.333 157.667C114.278 157.722 114.222 158.778 114.667 158.333C114.722 158.278 114.778 157.222 114.333 157.667z"/>
<path style="fill:#5d9ee8; stroke:none;" d="M113 159L113 162C113.696 160.446 113.696 160.554 113 159z"/>
<path style="fill:#5c9fe8; stroke:none;" d="M73 160C72.0143 161.479 72 161.203 72 163C73.2892 161.557 73.4009 161.766 73 160z"/>
<path style="fill:#78adec; stroke:none;" d="M112 163L113 164L112 163z"/>
<path style="fill:#74aaeb; stroke:none;" d="M111 166L112 167L111 166z"/>
<path style="fill:#6ba6ea; stroke:none;" d="M70 167L71 168L70 167z"/>
<path style="fill:#7db0ec; stroke:none;" d="M69 169L70 170L69 169z"/>
<path style="fill:#4591e5; stroke:none;" d="M109 169L109 173C109.71 171.241 109.71 170.759 109 169z"/>
<path style="fill:#5e9ee7; stroke:none;" d="M68 171L68 174C68.6961 172.446 68.6961 172.554 68 171z"/>
<path style="fill:#8bbbef; stroke:none;" d="M108.333 173.667C108.278 173.722 108.222 174.778 108.667 174.333C108.722 174.278 108.778 173.222 108.333 173.667z"/>
<path style="fill:#5c9be7; stroke:none;" d="M128 173C129.769 173.779 131.036 173.912 133 174C131.231 173.221 129.964 173.088 128 173z"/>
<path style="fill:#5c9ce8; stroke:none;" d="M152 173C153.248 173.685 153.548 173.749 155 174C153.752 173.315 153.452 173.251 152 173z"/>
<path style="fill:#8bb7ee; stroke:none;" d="M155.667 173.333C155.222 173.778 156.278 173.722 156.333 173.667C156.778 173.222 155.722 173.278 155.667 173.333z"/>
<path style="fill:#72a8ea; stroke:none;" d="M121 174C122.248 174.685 122.548 174.749 124 175C122.752 174.315 122.452 174.251 121 174z"/>
<path style="fill:#8ab6ee; stroke:none;" d="M163 174L164 175L163 174z"/>
<path style="fill:#74abeb; stroke:none;" d="M107 175C107.406 177.092 107.217 177.02 109 178C108.309 176.612 108.015 176.139 107 175z"/>
<path style="fill:#90bcef; stroke:none;" d="M115.667 175.333C115.222 175.778 116.278 175.722 116.333 175.667C116.778 175.222 115.722 175.278 115.667 175.333z"/>
<path style="fill:#5ea0e8; stroke:none;" d="M117 175C118.248 175.685 118.548 175.749 120 176C118.752 175.315 118.452 175.251 117 175z"/>
<path style="fill:#579ce8; stroke:none;" d="M164 175C165.506 175.683 166.315 175.826 168 176C166.494 175.317 165.685 175.174 164 175z"/>
<path style="fill:#67a5e9; stroke:none;" d="M113.667 176.333C113.222 176.778 114.278 176.722 114.333 176.667C114.778 176.222 113.722 176.278 113.667 176.333z"/>
<path style="fill:#5e9de8; stroke:none;" d="M168 176C169.506 176.683 170.315 176.826 172 177C170.494 176.317 169.685 176.174 168 176z"/>
<path style="fill:#5799e7; stroke:none;" d="M110.667 177.333C110.222 177.778 111.278 177.722 111.333 177.667C111.778 177.222 110.722 177.278 110.667 177.333z"/>
<path style="fill:#74abeb; stroke:none;" d="M173 177C174.248 177.685 174.548 177.749 176 178C174.752 177.315 174.452 177.251 173 177z"/>
<path style="fill:#8bb7ee; stroke:none;" d="M65.3333 178.667C65.2778 178.722 65.2222 179.778 65.6667 179.333C65.7222 179.278 65.7778 178.222 65.3333 178.667z"/>
<path style="fill:#6ca6ea; stroke:none;" d="M177 178L178 179L177 178z"/>
<path style="fill:#5c9ee8; stroke:none;" d="M181 180C182.248 180.685 182.548 180.749 184 181C182.752 180.315 182.452 180.251 181 180z"/>
<path style="fill:#62a1e8; stroke:none;" d="M184 181C185.248 181.685 185.548 181.749 187 182C185.752 181.315 185.452 181.251 184 181z"/>
<path style="fill:#63a1e9; stroke:none;" d="M63.3333 183.667C63.2778 183.722 63.2222 184.778 63.6667 184.333C63.7222 184.278 63.7778 183.222 63.3333 183.667z"/>
<path style="fill:#82b3ed; stroke:none;" d="M192 184L193 185L192 184z"/>
<path style="fill:#7db2ed; stroke:none;" d="M193.667 185.333C193.222 185.778 194.278 185.722 194.333 185.667C194.778 185.222 193.722 185.278 193.667 185.333z"/>
<path style="fill:#5298e6; stroke:none;" d="M62 186L62 189C62.6961 187.446 62.6961 187.554 62 186z"/>
<path style="fill:#8bbbee; stroke:none;" d="M195.667 186.333C195.222 186.778 196.278 186.722 196.333 186.667C196.778 186.222 195.722 186.278 195.667 186.333z"/>
<path style="fill:#4691e5; stroke:none;" d="M201 190C202.458 191.081 203.248 191.436 205 192C203.457 190.733 202.952 190.511 201 190z"/>
<path style="fill:#6ca6e9; stroke:none;" d="M206 192L207 193L206 192z"/>
<path style="fill:#74abeb; stroke:none;" d="M59.3333 193.667C59.2778 193.722 59.2222 194.778 59.6667 194.333C59.7222 194.278 59.7778 193.222 59.3333 193.667z"/>
<path style="fill:#6ca6ea; stroke:none;" d="M207 193L208 194L207 193z"/>
<path style="fill:#8ebbef; stroke:none;" d="M209 194L210 195L209 194z"/>
<path style="fill:#4c94e6; stroke:none;" d="M58.3333 196.667C58.2778 196.722 58.2222 197.778 58.6667 197.333C58.7223 197.278 58.7778 196.222 58.3333 196.667z"/>
<path style="fill:#79adeb; stroke:none;" d="M214 198L215 199L214 198z"/>
<path style="fill:#81b1ec; stroke:none;" d="M55 203L56 204L55 203z"/>
<path style="fill:#61a0e9; stroke:none;" d="M54.3333 205.667C54.2778 205.722 54.2222 206.778 54.6667 206.333C54.7223 206.278 54.7778 205.222 54.3333 205.667z"/>
<path style="fill:#60a0e8; stroke:none;" d="M53.3333 208.667C53.2778 208.722 53.2222 209.778 53.6667 209.333C53.7223 209.278 53.7778 208.222 53.3333 208.667z"/>
<path style="fill:#569be7; stroke:none;" d="M52.3333 210.667C52.2778 210.722 52.2222 211.778 52.6667 211.333C52.7222 211.278 52.7778 210.222 52.3333 210.667z"/>
<path style="fill:#5095e6; stroke:none;" d="M132 210C133.506 210.683 134.315 210.826 136 211C134.494 210.317 133.685 210.174 132 210z"/>
<path style="fill:#75abeb; stroke:none;" d="M147 210C149.052 210.874 150.747 210.953 153 211C150.948 210.126 149.253 210.047 147 210z"/>
<path style="fill:#78afec; stroke:none;" d="M127 211C128.248 211.685 128.548 211.749 130 212C128.752 211.315 128.452 211.251 127 211z"/>
<path style="fill:#5e9ee8; stroke:none;" d="M155 211C156.769 211.779 158.036 211.912 160 212C158.231 211.221 156.964 211.088 155 211z"/>
<path style="fill:#8fbbee; stroke:none;" d="M227 211L228 212L227 211z"/>
<path style="fill:#82b3ed; stroke:none;" d="M51 212L52 213L51 212z"/>
<path style="fill:#589ce7; stroke:none;" d="M122 212C123.248 212.685 123.548 212.749 125 213C123.752 212.315 123.452 212.251 122 212z"/>
<path style="fill:#589de8; stroke:none;" d="M160 212C161.248 212.685 161.548 212.749 163 213C161.752 212.315 161.452 212.251 160 212z"/>
<path style="fill:#61a0e8; stroke:none;" d="M163.667 213.333C163.222 213.778 164.278 213.722 164.333 213.667C164.778 213.222 163.722 213.278 163.667 213.333z"/>
<path style="fill:#8cb9ee; stroke:none;" d="M118 214L119 215L118 214z"/>
<path style="fill:#589be7; stroke:none;" d="M50.3333 215.667C50.2777 215.722 50.2222 216.778 50.6667 216.333C50.7222 216.278 50.7778 215.222 50.3333 215.667z"/>
<path style="fill:#66a3e9; stroke:none;" d="M114 215L115 216L114 215z"/>
<path style="fill:#6da7ea; stroke:none;" d="M169.667 215.333C169.222 215.778 170.278 215.722 170.333 215.667C170.778 215.222 169.722 215.278 169.667 215.333z"/>
<path style="fill:#68a5ea; stroke:none;" d="M112 216L113 217L112 216z"/>
<path style="fill:#5d9fe8; stroke:none;" d="M172 216C173.543 217.267 174.048 217.489 176 218C174.542 216.919 173.752 216.564 172 216z"/>
<path style="fill:#6fa9eb; stroke:none;" d="M231 216L232 217L231 216z"/>
<path style="fill:#8cb8ee; stroke:none;" d="M110.667 217.333C110.222 217.778 111.278 217.722 111.333 217.667C111.778 217.222 110.722 217.278 110.667 217.333z"/>
<path style="fill:#6ca6ea; stroke:none;" d="M49 218L50 219L49 218z"/>
<path style="fill:#8ebaef; stroke:none;" d="M109 218L110 219L109 218z"/>
<path style="fill:#3d8ce3; stroke:none;" d="M233 219C233.684 220.58 233.805 220.777 235 222C234.316 220.42 234.195 220.223 233 219z"/>
<path style="fill:#5d9ee8; stroke:none;" d="M48 220L48 223C48.6961 221.446 48.6961 221.554 48 220z"/>
<path style="fill:#66a3e9; stroke:none;" d="M104 220L105 221L104 220z"/>
<path style="fill:#6da6ea; stroke:none;" d="M180 220L181 221L180 220z"/>
<path style="fill:#88b7ee; stroke:none;" d="M103 221L104 222L103 221z"/>
<path style="fill:#86b6ed; stroke:none;" d="M235 221L236 222L235 221z"/>
<path style="fill:#80b2ed; stroke:none;" d="M183 222L184 223L183 222z"/>
<path style="fill:#7cafec; stroke:none;" d="M100 223L101 224L100 223z"/>
<path style="fill:#82b3ed; stroke:none;" d="M184 223L185 224L184 223z"/>
<path style="fill:#76aeec; stroke:none;" d="M97 225L98 226L97 225z"/>
<path style="fill:#4b95e5; stroke:none;" d="M237 225C237.684 226.58 237.805 226.777 239 228C238.316 226.42 238.195 226.223 237 225z"/>
<path style="fill:#8bbaee; stroke:none;" d="M96 226L97 227L96 226z"/>
<path style="fill:#5698e7; stroke:none;" d="M45.3333 227.667C45.2778 227.722 45.2222 228.778 45.6667 228.333C45.7222 228.278 45.7778 227.222 45.3333 227.667z"/>
<path style="fill:#80b2ec; stroke:none;" d="M191 228L192 229L191 228z"/>
<path style="fill:#4792e5; stroke:none;" d="M239 228C239.684 229.58 239.805 229.777 241 231C240.316 229.42 240.195 229.223 239 228z"/>
<path style="fill:#6da6ea; stroke:none;" d="M92 229L93 230L92 229z"/>
<path style="fill:#88b7ed; stroke:none;" d="M192 229L193 230L192 229z"/>
<path style="fill:#4c94e6; stroke:none;" d="M44.3333 230.667C44.2778 230.722 44.2222 231.778 44.6667 231.333C44.7222 231.278 44.7778 230.222 44.3333 230.667z"/>
<path style="fill:#6da6ea; stroke:none;" d="M91 230L92 231L91 230z"/>
<path style="fill:#90bcef; stroke:none;" d="M193 230L194 231L193 230z"/>
<path style="fill:#69a5e9; stroke:none;" d="M90 231L91 232L90 231z"/>
<path style="fill:#8bb8ee; stroke:none;" d="M241 231L242 232L241 231z"/>
<path style="fill:#589be8; stroke:none;" d="M43.3333 232.667C43.2778 232.722 43.2222 233.778 43.6667 233.333C43.7222 233.278 43.7778 232.222 43.3333 232.667z"/>
<path style="fill:#69a5e9; stroke:none;" d="M89 232L90 233L89 232z"/>
<path style="fill:#69a5ea; stroke:none;" d="M88 233L89 234L88 233z"/>
<path style="fill:#80b2ec; stroke:none;" d="M196 233L197 234L196 233z"/>
<path style="fill:#4e97e6; stroke:none;" d="M42 234L42 238C42.7102 236.241 42.7102 235.759 42 234z"/>
<path style="fill:#6ca6ea; stroke:none;" d="M87 234L88 235L87 234z"/>
<path style="fill:#8ab6ee; stroke:none;" d="M197 234L198 235L197 234z"/>
<path style="fill:#6ca6ea; stroke:none;" d="M86 235L87 236L86 235z"/>
<path style="fill:#90bcef; stroke:none;" d="M198 235L199 236L198 235z"/>
<path style="fill:#75abeb; stroke:none;" d="M199 236L200 237L199 236z"/>
<path style="fill:#61a2e9; stroke:none;" d="M244 236L244 239C244.696 237.446 244.696 237.554 244 236z"/>
<path style="fill:#82b4ed; stroke:none;" d="M41 237L42 238L41 237z"/>
<path style="fill:#6daaea; stroke:none;" d="M84 238L85 239L84 238z"/>
<path style="fill:#7cafeb; stroke:none;" d="M202 240L203 241L202 240z"/>
<path style="fill:#8ab9ef; stroke:none;" d="M246 241L247 242L246 241z"/>
<path style="fill:#6ca6ea; stroke:none;" d="M39.3333 242.667C39.2778 242.722 39.2222 243.778 39.6667 243.333C39.7222 243.278 39.7778 242.222 39.3333 242.667z"/>
<path style="fill:#5b9be7; stroke:none;" d="M247.333 244.667C247.278 244.722 247.222 245.778 247.667 245.333C247.722 245.278 247.778 244.222 247.333 244.667z"/>
<path style="fill:#5c9fe8; stroke:none;" d="M38 245C37.0143 246.479 37 246.203 37 248C38.2892 246.557 38.4009 246.766 38 245z"/>
<path style="fill:#7bafec; stroke:none;" d="M79 245L80 246L79 245z"/>
<path style="fill:#91bdef; stroke:none;" d="M78.3333 246.667C78.2778 246.722 78.2222 247.778 78.6667 247.333C78.7222 247.278 78.7778 246.222 78.3333 246.667z"/>
<path style="fill:#438fe4; stroke:none;" d="M37 248C36.0143 249.479 36 249.203 36 251C37.2892 249.557 37.4009 249.766 37 248z"/>
<path style="fill:#7cafec; stroke:none;" d="M77 248L78 249L77 248z"/>
<path style="fill:#91bdef; stroke:none;" d="M249.333 248.667C249.278 248.722 249.222 249.778 249.667 249.333C249.722 249.278 249.778 248.222 249.333 248.667z"/>
<path style="fill:#6ca7ea; stroke:none;" d="M76 250L77 251L76 250z"/>
<path style="fill:#569be7; stroke:none;" d="M249 250L249 253C249.696 251.446 249.696 251.554 249 250z"/>
<path style="fill:#6ca6ea; stroke:none;" d="M35.3333 251.667C35.2778 251.722 35.2222 252.778 35.6667 252.333C35.7222 252.278 35.7778 251.222 35.3333 251.667z"/>
<path style="fill:#75abeb; stroke:none;" d="M209 251L210 252L209 251z"/>
<path style="fill:#63a3e9; stroke:none;" d="M74.3333 253.667C74.2778 253.722 74.2222 254.778 74.6667 254.333C74.7222 254.278 74.7778 253.222 74.3333 253.667z"/>
<path style="fill:#87b6ee; stroke:none;" d="M210.333 253.667C210.278 253.722 210.222 254.778 210.667 254.333C210.722 254.278 210.778 253.222 210.333 253.667z"/>
<path style="fill:#4f95e6; stroke:none;" d="M34 254C36.582 256.955 41.2931 256 45 256L74 256C70.0414 254.339 65.2603 255 61 255C52.1739 255 42.6242 256.053 34 254z"/>
<path style="fill:#75abeb; stroke:none;" d="M211 255C215.215 256.769 220.465 256 225 256L251 256C246.785 254.231 241.536 255 237 255L211 255z"/>
</svg>
